<?xml version="1.0" encoding="UTF-8"?>
<svg id="Layer_1" xmlns="http://www.w3.org/2000/svg" version="1.1" viewBox="0 0 1920 1080">
  <!-- Generator: Adobe Illustrator 29.5.1, SVG Export Plug-In . SVG Version: 2.1.0 Build 141)  -->
  <defs>
    <style>
      .st0 {
        fill: #fff;
      }
    </style>
  </defs>
  <g>
    <g>
      <path class="st0" d="M998.3,520.6v22.5h-4.5v4.5h4.5v9h-13.5v-4.5h-4.5v-4.5h-4.5v9h-13.5v-40.4h31.5v4.5h4.5ZM984.8,529.6h-9v4.5h9v-4.5Z"/>
      <path class="st0" d="M902.5,516.2h40.4v33.6h-30.3v6.7h-10.1v-40.3ZM932.7,526.3h-20.1v13.4h20.1v-13.4Z"/>
      <path class="st0" d="M957.2,547.9l-4.8,6.8c-.9,1.3-2.1,1.8-3.4,1.8-2.2,0-4.3-1.8-4.3-5s1.5-4.3,3.5-5.2l4.7-2c.6-.2.8-.7.8-1.2,0-.9-.7-.9-1.1-.8l-2.9.4c-4.3.6-5.8-3.8-2.9-7.8l8.1-11.4c.7-.9.9-1.4.9-1.9,0-1-.7-1.9-1.5-1.5l-5.1,2.7c-1.8.9-3.9.6-4.1-2.4-.3-3.5,3.1-5.3,6.4-5.3,4.9,0,7.1,4,6,9.2l-3.5,15.4c0,.4-.1.7-.1.9,0,1.2.8,1.6,2.1,1.6h1.8c1.1,0,1.4.7,1.4,1.7s-.9,2.2-2,3.8"/>
      <path class="st0" d="M1052.5,548.7c-.6-1-1.7-1.7-2.6-2.3-.9-.6-1.8-1.4-2.3-2.4-.4-.7-.5-1.5-.4-2.2,0-.4.2-.8-.3-.9-.6,0-1.2.2-1.7.4-.7.3-1.3.9-1.4,1.7-.3,1.7,1.5,3.1,2.2,4.4.3.6.5,1.2.4,1.8,0,.5-.2,1.1-.6,1.5-.4.4-1,.5-1.5.2-.4-.3-.6-.8-.7-1.3,0-.5,0-1,0-1.5,0-.2,0-.3-.1-.4-.1,0-.2,0-.4,0-.6.1-1.1.5-1.4.9-.4.5-.6,1-.8,1.6-.1.4-.2.9-.2,1.4,0,.7,0,1.4.3,2,0,0,.8,2.7,4.1,3-.5-.6-.8-1.3-.8-2.1,0-1.8,1.4-3.2,3.2-3.2s3.2,1.4,3.2,3.2,0,.5,0,.8c.7-.5,1.3-1.2,1.8-1.9.8-1.4,1.3-3.3.4-4.7"/>
      <path class="st0" d="M1032.3,524c-.1.7-.3,1.7-.6,2.9-.3,1.2-.7,2.5-1.1,3.9-.4,1.4-.8,2.9-1.3,4.4-.5,1.5-.9,3-1.4,4.5-.4,1.5-.9,2.8-1.2,4.1-.4,1.3-.7,2.3-.9,3.2-.7,2.9-1,5-.9,6.5.1,1.5.6,2.3,1.4,2.5.6.2,1.2,0,1.7-.4.5-.4.9-1.1,1.3-1.8.3-.8.6-1.6.8-2.6.2-.9.3-1.8.3-2.7s-.1-1.6-.3-2.2c-.2-.6-.6-.9-1-.9-.4,0-.8,0-1.1.1-.3.1-.7.5-1.2,1.1l-.2-.2c.5-.7,1.1-1.5,1.8-2.2.7-.7,1.4-1.3,2.2-1.9.7-.6,1.5-1,2.2-1.4.7-.4,1.4-.5,1.9-.5s.7,0,1,.3c.9.5,1.4,1.2,1.5,2.2.2,1,.1,2.1-.2,3.3-.3,1.2-.8,2.4-1.6,3.7-.7,1.3-1.6,2.4-2.6,3.4-1,1-2.1,1.9-3.3,2.5-1.2.7-2.4,1-3.6,1s-1.5-.1-2.3-.4c-.8-.3-1.6-.6-2.3-1.1-.7-.5-1.4-1-2-1.6-.6-.6-1.1-1.3-1.4-1.9l7.8-22h-.6c-1.4,4.2-2.8,8-4.2,11.4-1.4,3.4-2.8,6.3-4.2,8.7-1.3,2.4-2.6,4.3-3.9,5.6-1.2,1.3-2.4,2-3.4,2-1.6,0-2.9-.3-4-.8-1.1-.5-2-1.2-2.8-2-.7-.8-1.3-1.7-1.6-2.8-.4-1-.5-2.1-.5-3.1,0-2.1.7-4.1,2-6.1,1.3-2,3-3.9,5.1-5.7,2-1.9,4.2-3.7,6.5-5.4,2.3-1.8,4.5-3.4,6.6-5,2-1.6,3.7-3.1,5.1-4.6,1.4-1.5,2.1-2.8,2.1-4.2,0-.5,0-.8-.3-1-.2-.2-.4-.2-.7-.2-.7,0-1.5.4-2.4,1.1-1,.7-2,1.6-3.1,2.7-1.1,1.1-2.3,2.3-3.5,3.5-1.2,1.3-2.4,2.4-3.6,3.5-1.2,1.1-2.3,2-3.4,2.7-1.1.7-2.1,1.1-3,1.1s-1.3-.2-1.8-.5c-.5-.4-.9-.8-1.2-1.4-.3-.6-.6-1.2-.7-1.8-.2-.7-.2-1.3-.2-1.9,0-1.9.2-3.6.6-5.2.4-1.6.8-2.7,1.3-3.5v.2c-.3,1-.5,1.8-.4,2.5,0,.7.3,1.3.7,1.8.4.5.9.8,1.5,1,.6.2,1.2.3,1.9.3,1.9,0,3.6-.3,5.2-1,1.6-.7,3.2-1.5,4.6-2.3,1.5-.9,2.9-1.6,4.3-2.3,1.4-.7,2.8-1,4.2-1s1.3.2,2,.5c.7.3,1.2.8,1.7,1.4.5.7.8,1.5,1,2.6.2,1.1.2,2.3,0,3.8M1026.5,522.3l-.3-.3c-2.2,2.3-4.3,4.3-6.4,6.1-2.1,1.8-4,3.5-5.6,5.1-1.6,1.7-3,3.4-4,5.2-1,1.8-1.6,3.9-1.7,6.3,0,1.2.2,2.2.7,2.9.5.7,1.4,1.1,2.5,1.1s2.3-.4,3.4-1.2c1-.8,2-1.8,2.9-3.2.9-1.3,1.8-2.9,2.6-4.6s1.5-3.6,2.2-5.6c.7-2,1.4-4,2-6,.6-2,1.2-4,1.8-5.9"/>
    </g>
    <g>
      <path class="st0" d="M789.6,523.2v-6.8h3c.3,0,.6,0,.8.2.3.1.5.3.7.5.2.2.3.4.4.7s.2.5.2.8c0,.5-.1.9-.4,1.3s-.6.6-1,.8l1.6,2.6h-1.2l-1.5-2.4h-1.6v2.4h-1.1ZM790.7,519.8h1.9c.3,0,.5-.1.7-.4.2-.2.3-.6.3-.9s-.1-.6-.3-.9c-.2-.2-.5-.4-.8-.4h-1.8v2.6Z"/>
      <path class="st0" d="M801.7,522.2v1h-4.7v-6.8h4.6v1h-3.5v1.9h3.1v.9h-3.1v2.1h3.6Z"/>
      <path class="st0" d="M805.7,516.3h1l2.7,6.8h-1.1l-.7-1.9h-2.6l-.7,1.9h-1.1l2.7-6.8ZM807.3,520.5l-1.1-3-1.1,3h2.2Z"/>
      <path class="st0" d="M811.2,523.2v-6.8h1.1v5.9h3.7v1h-4.8Z"/>
      <path class="st0" d="M817.8,523.2v-6.8h1.1v6.8h-1.1Z"/>
      <path class="st0" d="M820.9,522.3l4.1-5.1h-4v-1h5.3v.8l-4,5.1h4v1h-5.4v-.8Z"/>
      <path class="st0" d="M830.4,516.3h1l2.7,6.8h-1.1l-.7-1.9h-2.6l-.7,1.9h-1.1l2.7-6.8ZM832,520.5l-1.1-3-1.1,3h2.2Z"/>
      <path class="st0" d="M841.2,521.6c-.2.4-.5.8-.9,1s-.9.4-1.4.5c.3.3.5.6.5.9s0,.5-.3.7-.4.2-.8.2-.8,0-1.1-.3l.3-.6c.2.1.5.2.7.2s.3,0,.4-.1c.1,0,.2-.2.2-.3,0-.3-.2-.5-.5-.7-.4,0-.8-.2-1.2-.4-.4-.2-.7-.5-1-.8-.3-.3-.5-.7-.6-1.1s-.2-.8-.2-1.2,0-.7.1-1c0-.3.2-.6.4-.9.2-.3.4-.5.7-.8s.6-.4.9-.5c.4-.1.7-.2,1.1-.2.6,0,1.1.1,1.6.4.5.3.8.6,1,1.1l-.8.6c0-.2-.2-.4-.3-.5-.1-.1-.3-.3-.5-.3s-.3-.1-.5-.2c-.2,0-.3,0-.5,0-.3,0-.5,0-.8.1s-.4.2-.6.4c-.2.2-.3.3-.4.6s-.2.4-.3.7c0,.2,0,.5,0,.7,0,.4,0,.9.3,1.2.2.4.5.7.8.9.3.2.7.4,1.1.4s.5,0,.7-.1c.2,0,.4-.2.6-.4.2-.2.4-.4.5-.6l.9.5Z"/>
      <path class="st0" d="M845.1,516.3h1l2.7,6.8h-1.1l-.7-1.9h-2.6l-.7,1.9h-1.1l2.7-6.8ZM844.9,515c0,0-.2,0-.3,0,0,0-.1,0-.1.2,0,0,0,.1,0,.2,0,0,0,0,0,0h-.6s0-.1,0-.2c0,0,0-.2.1-.3,0-.1.1-.2.2-.3,0,0,.2-.2.3-.2s.3,0,.4,0,.3,0,.5.1c.1,0,.3.1.4.2.1,0,.3.1.4.1s.2,0,.2,0,.1,0,.2-.1,0,0,0-.1c0,0,0,0,0-.1s0,0,0,0h.6s0,.1,0,.2,0,.2-.1.3c0,.1-.1.2-.2.3,0,0-.2.2-.3.2-.1,0-.3.1-.4.1s-.3,0-.5-.1c-.2,0-.3-.1-.4-.2-.1,0-.2-.1-.4-.1ZM846.7,520.5l-1.1-3-1.1,3h2.2Z"/>
      <path class="st0" d="M849.9,519.7c0-.5,0-.9.3-1.3s.4-.8.7-1.1c.3-.3.6-.6,1-.8s.8-.3,1.3-.3.9,0,1.3.3c.4.2.8.5,1,.8.3.3.5.7.7,1.1s.2.8.2,1.3,0,.9-.3,1.3-.4.8-.7,1.1c-.3.3-.6.6-1,.8-.4.2-.8.3-1.3.3s-.7,0-1.1-.2c-.3-.1-.6-.3-.9-.5-.3-.2-.5-.5-.7-.8-.2-.3-.3-.6-.4-.9,0-.3-.2-.7-.2-1ZM853.1,522.2c.3,0,.6,0,.9-.2.3-.1.5-.3.7-.6.2-.2.3-.5.4-.8,0-.3.1-.6.1-.9s0-.6-.2-.9c-.1-.3-.2-.6-.4-.8s-.4-.4-.7-.6-.6-.2-.9-.2-.6,0-.9.2c-.3.1-.5.3-.7.6-.2.2-.3.5-.4.8-.1.3-.2.6-.2.9s0,.8.3,1.2.4.7.8.9c.3.2.7.4,1.2.4Z"/>
    </g>
    <g>
      <path class="st0" d="M790.3,466v-6.8h2.9c.4,0,.8.1,1.1.3s.6.5.8.8c.2.3.3.7.3,1.1s0,.6-.2.8c-.1.3-.2.5-.4.7-.2.2-.4.4-.7.5-.3.1-.5.2-.8.2h-1.9v2.4h-1.1ZM791.4,462.7h1.8c.3,0,.5-.1.7-.4.2-.2.3-.5.3-.9s-.1-.7-.3-.9-.5-.4-.8-.4h-1.7v2.6Z"/>
      <path class="st0" d="M799.3,459.2h1l2.7,6.8h-1.1l-.7-1.9h-2.6l-.7,1.9h-1.1l2.7-6.8ZM800.9,463.3l-1.1-3-1.1,3h2.2Z"/>
      <path class="st0" d="M809.8,460.1h-2.3v5.9h-1.1v-5.9h-2.3v-1h5.7v1Z"/>
      <path class="st0" d="M811.7,466v-6.8h3c.3,0,.6,0,.8.2.3.1.5.3.7.5.2.2.3.4.4.7s.2.5.2.8c0,.5-.1.9-.4,1.3s-.6.6-1,.8l1.6,2.6h-1.2l-1.5-2.4h-1.6v2.4h-1.1ZM812.7,462.7h1.9c.3,0,.5-.1.7-.4.2-.2.3-.6.3-.9s-.1-.6-.3-.9c-.2-.2-.5-.4-.8-.4h-1.8v2.6Z"/>
      <path class="st0" d="M818.6,462.6c0-.5,0-.9.3-1.3s.4-.8.7-1.1c.3-.3.6-.6,1-.8s.8-.3,1.3-.3.9,0,1.3.3c.4.2.8.5,1,.8.3.3.5.7.7,1.1s.2.8.2,1.3,0,.9-.3,1.3-.4.8-.7,1.1c-.3.3-.6.6-1,.8-.4.2-.8.3-1.3.3s-.7,0-1.1-.2c-.3-.1-.6-.3-.9-.5-.3-.2-.5-.5-.7-.8-.2-.3-.3-.6-.4-.9,0-.3-.2-.7-.2-1ZM821.8,465.1c.3,0,.6,0,.9-.2.3-.1.5-.3.7-.6.2-.2.3-.5.4-.8,0-.3.1-.6.1-.9s0-.6-.2-.9c-.1-.3-.2-.6-.4-.8s-.4-.4-.7-.6-.6-.2-.9-.2-.6,0-.9.2c-.3.1-.5.3-.7.6-.2.2-.3.5-.4.8-.1.3-.2.6-.2.9s0,.8.3,1.2.4.7.8.9c.3.2.7.4,1.2.4Z"/>
      <path class="st0" d="M830.1,459.1c.6,0,1.1.1,1.6.4.5.3.8.6,1,1.1l-.8.6c0-.2-.2-.4-.3-.5-.1-.1-.3-.3-.5-.3s-.3-.1-.5-.2c-.2,0-.3,0-.5,0-.3,0-.5,0-.8.1s-.4.2-.6.4c-.2.2-.3.3-.4.6s-.2.4-.3.7c0,.2,0,.5,0,.7,0,.4,0,.9.3,1.2.2.4.5.7.8.9.3.2.7.4,1.1.4s.5,0,.7-.1c.2,0,.4-.2.6-.4.2-.2.4-.4.5-.6l.9.5c-.1.3-.4.6-.7.9-.3.2-.6.4-1,.6-.4.1-.7.2-1.1.2s-.9-.1-1.3-.3c-.4-.2-.8-.5-1-.8s-.5-.7-.7-1.1c-.2-.4-.2-.8-.2-1.3s0-.7.1-1c0-.3.2-.6.4-.9.2-.3.4-.5.7-.8s.6-.4.9-.5c.4-.1.7-.2,1.1-.2Z"/>
      <path class="st0" d="M834.8,466v-6.8h1.1v6.8h-1.1ZM835.7,458.5l-.7-.2.6-1.1h1l-.9,1.3Z"/>
      <path class="st0" d="M839.4,461.2v4.8h-1.1v-6.8h.9l3.9,4.9v-4.9h1.1v6.8h-.9l-3.8-4.8Z"/>
      <path class="st0" d="M846.7,466v-6.8h1.1v6.8h-1.1Z"/>
      <path class="st0" d="M849.9,462.6c0-.5,0-.9.3-1.3s.4-.8.7-1.1c.3-.3.6-.6,1-.8s.8-.3,1.3-.3.9,0,1.3.3c.4.2.8.5,1,.8.3.3.5.7.7,1.1s.2.8.2,1.3,0,.9-.3,1.3-.4.8-.7,1.1c-.3.3-.6.6-1,.8-.4.2-.8.3-1.3.3s-.7,0-1.1-.2c-.3-.1-.6-.3-.9-.5-.3-.2-.5-.5-.7-.8-.2-.3-.3-.6-.4-.9,0-.3-.2-.7-.2-1ZM853.1,465.1c.3,0,.6,0,.9-.2.3-.1.5-.3.7-.6.2-.2.3-.5.4-.8,0-.3.1-.6.1-.9s0-.6-.2-.9c-.1-.3-.2-.6-.4-.8s-.4-.4-.7-.6-.6-.2-.9-.2-.6,0-.9.2c-.3.1-.5.3-.7.6-.2.2-.3.5-.4.8-.1.3-.2.6-.2.9s0,.8.3,1.2.4.7.8.9c.3.2.7.4,1.2.4Z"/>
    </g>
    <g>
      <g>
        <polygon class="st0" points="925.5 595 925.5 588.7 922.9 593.5 922 593.5 919.4 588.7 919.4 595 918 595 918 586.1 919.5 586.1 922.5 591.6 925.4 586.1 926.9 586.1 926.9 595 925.5 595"/>
        <rect class="st0" x="931.4" y="586.1" width="1.4" height="8.9"/>
        <polygon class="st0" points="938.8 588.7 938.8 595 937.4 595 937.4 586.1 938.5 586.1 943.6 592.6 943.6 586.1 945 586.1 945 595 943.7 595 938.8 588.7"/>
        <rect class="st0" x="949.5" y="586.1" width="1.4" height="8.9"/>
        <path class="st0" d="M960.7,588.2c-.2-.2-.5-.4-1-.6-.5-.2-.9-.3-1.4-.3s-1,.1-1.3.3c-.3.2-.4.5-.4.9s0,.2,0,.3c0,0,0,.2.1.3,0,0,.1.1.2.2.1,0,.2.1.3.2.1,0,.2,0,.4.2.2,0,.3.1.5.1.2,0,.3,0,.6.1.4,0,.7.2,1,.3.3,0,.5.2.8.4.3.1.5.3.6.5.2.2.3.4.4.6,0,.2.1.5.1.8s0,.7-.2,1c-.1.3-.3.5-.5.7-.2.2-.4.4-.7.5-.3.1-.6.2-.9.3-.3,0-.7,0-1,0-.7,0-1.3-.1-2-.3-.6-.2-1.2-.5-1.7-.9l.6-1.2c.3.3.7.5,1.3.8.6.2,1.2.4,1.8.4s1,0,1.3-.3c.3-.2.5-.5.5-.8s0-.3,0-.4c0-.1-.1-.2-.2-.3-.1,0-.2-.2-.3-.2-.1,0-.3-.1-.5-.2-.2,0-.4-.1-.6-.2-.2,0-.4-.1-.7-.2-.5-.1-.9-.2-1.2-.4-.3-.1-.6-.3-.8-.5-.2-.2-.4-.4-.5-.7-.1-.3-.2-.5-.2-.9s0-.8.2-1.2c.2-.3.4-.6.7-.9.3-.2.6-.4,1-.5.4-.1.8-.2,1.3-.2,1.1,0,2.1.3,3,1l-.6,1.2Z"/>
        <polygon class="st0" points="972.1 587.4 969.2 587.4 969.2 595 967.8 595 967.8 587.4 964.8 587.4 964.8 586.1 972.1 586.1 972.1 587.4"/>
        <path class="st0" d="M979.5,585.2l-.9-.3.7-1.4h1.3l-1.1,1.7ZM982,593.8v1.2h-6.1v-8.9h6v1.2h-4.6v2.5h4v1.2h-4v2.7h4.7Z"/>
        <path class="st0" d="M987.3,590.7h2.5c.4,0,.7-.2,1-.5.3-.3.4-.7.4-1.2s-.1-.8-.4-1.2c-.3-.3-.6-.5-1-.5h-2.4v3.3ZM985.9,595v-8.9h3.9c.4,0,.8,0,1.1.3.4.2.6.4.9.7.2.3.4.6.6.9.1.3.2.7.2,1.1,0,.6-.2,1.1-.5,1.6-.3.5-.7.8-1.3,1l2.1,3.4h-1.6l-1.9-3.1h-2.1v3.1h-1.4Z"/>
        <rect class="st0" x="996.7" y="586.1" width="1.4" height="8.9"/>
        <path class="st0" d="M1006.4,593.8c.4,0,.8,0,1.2-.3.4-.2.7-.4.9-.7.2-.3.4-.7.5-1,.1-.4.2-.8.2-1.2s0-.8-.2-1.2c-.1-.4-.3-.7-.6-1-.2-.3-.5-.5-.9-.7-.4-.2-.7-.3-1.2-.3s-.8,0-1.2.3-.7.4-.9.7c-.2.3-.4.6-.6,1-.1.4-.2.8-.2,1.2s.1,1.1.3,1.6c.2.5.6.9,1,1.2.4.3.9.5,1.5.5M1002.1,590.6c0-.6.1-1.2.3-1.7.2-.5.5-1,.9-1.4.4-.4.8-.7,1.4-1s1.1-.4,1.7-.4,1.2.1,1.7.4c.5.3,1,.6,1.4,1,.4.4.6.9.9,1.5.2.5.3,1.1.3,1.7s-.1,1.2-.3,1.7-.5,1-.9,1.4c-.4.4-.8.7-1.4,1-.5.2-1.1.4-1.7.4s-1,0-1.4-.2c-.5-.2-.8-.4-1.2-.7-.3-.3-.6-.6-.9-1-.3-.4-.4-.8-.6-1.2-.1-.4-.2-.9-.2-1.3"/>
        <path class="st0" d="M1023.4,587.4h-1.8v6.4h1.8c.6,0,1.1-.1,1.6-.4.4-.3.8-.7,1-1.1.2-.5.3-1,.3-1.7,0-1-.3-1.7-.8-2.3-.5-.6-1.2-.9-2.1-.9M1020.2,595v-8.9h3.2c.7,0,1.3.1,1.9.4.6.2,1,.5,1.4,1,.4.4.6.9.8,1.4.2.5.3,1.1.3,1.7,0,1.3-.4,2.4-1.2,3.2-.8.8-1.8,1.2-3.2,1.2h-3.2Z"/>
        <path class="st0" d="M1036.1,591.6l-1.4-3.9-1.5,3.9h2.9ZM1034,586.1h1.3l3.5,8.9h-1.5l-.9-2.4h-3.4l-.9,2.4h-1.5l3.5-8.9Z"/>
        <path class="st0" d="M946.2,603.7c.8,0,1.6.2,2.2.5.6.4,1.1.8,1.4,1.4l-1.9,1.3c0-.2-.2-.4-.3-.5-.1-.2-.3-.3-.5-.3-.2,0-.3-.1-.5-.2-.2,0-.3,0-.5,0-.3,0-.6,0-.9.2-.3.1-.5.3-.6.5-.2.2-.3.5-.4.7,0,.3-.1.6-.1.8,0,.6.2,1.2.6,1.7.4.5.9.7,1.5.7s.5,0,.7-.1c.2,0,.4-.2.6-.4.2-.2.3-.4.4-.6l2,1.2c-.2.4-.5.8-.9,1.1-.4.3-.9.6-1.4.7-.5.2-1,.2-1.5.2s-1.2-.1-1.8-.4c-.6-.3-1-.6-1.4-1-.4-.4-.7-.9-.9-1.5-.2-.6-.3-1.1-.3-1.7s.1-1.1.3-1.6c.2-.5.5-1,.9-1.4.4-.4.9-.8,1.4-1,.6-.3,1.2-.4,1.9-.4"/>
        <path class="st0" d="M957.2,612.7c-.6,0-1.1,0-1.5-.2-.5-.2-.8-.4-1.1-.6-.3-.3-.6-.6-.8-1-.2-.4-.4-.8-.5-1.2,0-.4-.1-.9-.1-1.4v-4.6h2.5v4.6c0,.3,0,.6,0,.9,0,.3.2.5.3.7.1.2.3.4.5.5.2.1.4.2.7.2s.5,0,.7-.2c.2-.1.4-.3.5-.5.1-.2.2-.5.3-.7,0-.3,0-.5,0-.8v-4.6h2.4v4.6c0,.6,0,1.2-.2,1.7-.2.5-.4,1-.7,1.4-.3.4-.7.7-1.3.9-.5.2-1.1.3-1.8.3"/>
        <polygon class="st0" points="965.2 612.7 965.2 603.8 967.6 603.8 967.6 610.5 971.7 610.5 971.7 612.7 965.2 612.7"/>
        <polygon class="st0" points="980.8 605.9 978.2 605.9 978.2 612.7 975.8 612.7 975.8 605.9 973.2 605.9 973.2 603.8 980.8 603.8 980.8 605.9"/>
        <path class="st0" d="M988.1,612.7c-.6,0-1.1,0-1.5-.2-.5-.2-.8-.4-1.1-.6-.3-.3-.6-.6-.8-1-.2-.4-.4-.8-.5-1.2,0-.4-.1-.9-.1-1.4v-4.6h2.5v4.6c0,.3,0,.6,0,.9,0,.3.2.5.3.7.1.2.3.4.5.5.2.1.4.2.7.2s.5,0,.7-.2c.2-.1.4-.3.5-.5.1-.2.2-.5.3-.7,0-.3,0-.5,0-.8v-4.6h2.4v4.6c0,.6,0,1.2-.2,1.7-.2.5-.4,1-.7,1.4-.3.4-.7.7-1.3.9-.5.2-1.1.3-1.8.3"/>
        <path class="st0" d="M998.5,607.8h1.5c.2,0,.3,0,.4-.3.1-.2.2-.4.2-.7s0-.5-.2-.7c-.1-.2-.3-.3-.5-.3h-1.5v1.9ZM996,612.7v-8.9h4.1c.4,0,.8,0,1.2.3.4.2.7.4,1,.7.3.3.5.6.6,1,.2.4.2.7.2,1.1s-.1,1-.3,1.4c-.2.5-.5.8-.9,1.1l1.9,3.3h-2.7l-1.6-2.7h-1v2.7h-2.4Z"/>
        <path class="st0" d="M1011.2,609.3l-.8-3.1-.8,3.1h1.6ZM1009.1,603.8h2.7l2.8,8.9h-2.5l-.5-1.7h-2.4l-.5,1.7h-2.5l2.9-8.9Z"/>
      </g>
      <g>
        <path class="st0" d="M907.3,718.4c0,.2,0,.5,0,.7,0,.2,0,.4-.2.6,0,.2-.2.4-.3.5-.1.1-.3.3-.5.4-.2,0-.5.1-.7.1s-.5,0-.7-.1c-.2,0-.4-.2-.5-.4-.1-.1-.2-.3-.3-.5,0-.2-.2-.4-.2-.6,0-.2,0-.5,0-.7v-3.4h-1v3.4c0,.4,0,.7,0,1,0,.3.2.6.3.9.1.3.3.5.5.7.2.2.5.4.8.5.3.1.7.2,1.1.2s.9,0,1.3-.3c.4-.2.7-.4.9-.7.2-.3.4-.7.5-1,.1-.4.2-.8.2-1.3v-3.4h-1.1v3.4ZM916.2,719.8l-3.7-4.8h-.9v6.6h1v-4.7l3.7,4.7h.9v-6.6h-1.1v4.8ZM920.6,721.6h1v-6.6h-1v6.6ZM927,715l-2.6,6.6h1.1l.7-1.8h2.6l.7,1.8h1.1l-2.6-6.6h-1ZM926.3,719.1l1.1-2.9,1.1,2.9h-2.2ZM926.4,714.1s0,0,0-.1c0,0,0-.1.1-.2,0,0,.1,0,.2,0s.2,0,.3,0c.1,0,.3.1.4.2.1,0,.3.1.5.1s.3,0,.4,0c.1,0,.2-.1.3-.2,0,0,.1-.2.2-.3,0-.1,0-.2.1-.3,0,0,0-.1,0-.2h-.6s0,0,0,0c0,0,0,0,0,.1,0,0,0,0,0,.1,0,0,0,0-.2.1,0,0-.1,0-.2,0-.1,0-.2,0-.4-.1-.1,0-.3-.1-.4-.2-.1,0-.3-.1-.4-.1s-.3,0-.4,0-.2.1-.3.2c0,0-.1.2-.2.3,0,.1,0,.2-.1.3,0,0,0,.1,0,.2h.6s0,0,0,0M938,716c-.3-.3-.6-.6-1-.8-.4-.2-.8-.3-1.3-.3s-.9,0-1.3.3c-.4.2-.7.4-1,.7-.3.3-.5.7-.7,1.1-.2.4-.2.8-.2,1.3s0,.7.1,1c0,.3.2.6.4.9s.4.5.7.7c.3.2.5.4.9.5.3.1.7.2,1.1.2s.9,0,1.3-.3c.4-.2.7-.4,1-.7.3-.3.5-.7.7-1.1.2-.4.2-.8.2-1.3s0-.8-.2-1.2c-.2-.4-.4-.8-.6-1.1M937.7,719.2c0,.3-.2.5-.4.8-.2.2-.4.4-.7.6-.3.1-.6.2-.9.2s-.8-.1-1.1-.3c-.3-.2-.6-.5-.7-.9-.2-.4-.3-.8-.3-1.2s0-.6.1-.9c0-.3.2-.5.4-.8.2-.2.4-.4.7-.5.3-.1.6-.2.9-.2s.6,0,.9.2c.3.1.5.3.7.5.2.2.3.5.4.8.1.3.2.6.2.9s0,.6-.1.9M947,718.7h3v-.9h-3v-1.9h3.4v-.9h-4.5v6.6h4.5v-.9h-3.5v-2ZM962.2,718.4c.2-.4.4-.8.4-1.2s0-.5-.2-.8-.2-.5-.4-.7c-.2-.2-.4-.4-.7-.5-.3-.1-.5-.2-.8-.2h-2.9v6.6h1v-2.3h1.5l1.4,2.3h1.2l-1.6-2.5c.4-.1.7-.4.9-.7M960.5,718.4h-1.8v-2.5h1.8c.3,0,.5.1.7.4.2.2.3.5.3.9s0,.6-.3.9c-.2.2-.4.4-.7.4M966.7,718.7h3v-.9h-3v-1.9h3.4v-.9h-4.5v6.6h4.5v-.9h-3.5v-2ZM977,720.3c-.2.2-.4.3-.6.4-.2,0-.4.1-.7.1-.4,0-.8-.1-1.1-.3-.3-.2-.6-.5-.8-.9-.2-.4-.3-.8-.3-1.2s0-.5,0-.7c0-.2.1-.4.3-.7.1-.2.3-.4.4-.5.2-.2.4-.3.6-.4.2,0,.5-.1.7-.1s.3,0,.5,0c.2,0,.3,0,.5.2.2,0,.3.2.4.3.1.1.2.3.3.5l.8-.6c-.2-.4-.6-.8-1-1-.4-.3-.9-.4-1.5-.4s-.8,0-1.1.2c-.3.1-.6.3-.9.5-.3.2-.5.5-.7.7-.2.3-.3.6-.4.9,0,.3-.1.6-.1,1s0,.8.2,1.2c.2.4.4.8.6,1.1.3.3.6.6,1,.8.4.2.8.3,1.3.3s.7,0,1.1-.2c.4-.1.7-.3,1-.5.3-.2.5-.5.6-.8l-.9-.5c-.1.2-.3.5-.5.6M986.2,716c-.3-.3-.6-.6-1-.8s-.8-.3-1.3-.3-.9,0-1.3.3c-.4.2-.7.4-1,.7-.3.3-.5.7-.7,1.1-.2.4-.2.8-.2,1.3s0,.7.1,1c0,.3.2.6.4.9s.4.5.7.7c.3.2.5.4.9.5.3.1.7.2,1.1.2s.9,0,1.3-.3c.4-.2.7-.4,1-.7.3-.3.5-.7.7-1.1.2-.4.2-.8.2-1.3s0-.8-.2-1.2c-.2-.4-.4-.8-.6-1.1M985.8,719.2c0,.3-.2.5-.4.8-.2.2-.4.4-.7.6-.3.1-.6.2-.9.2s-.8-.1-1.1-.3c-.3-.2-.6-.5-.7-.9-.2-.4-.3-.8-.3-1.2s0-.6.1-.9c0-.3.2-.5.4-.8.2-.2.4-.4.7-.5.3-.1.6-.2.9-.2s.6,0,.9.2c.3.1.5.3.7.5.2.2.3.5.4.8.1.3.2.6.2.9s0,.6-.1.9M994.6,719.8l-3.7-4.8h-.9v6.6h1v-4.7l3.7,4.7h.9v-6.6h-1.1v4.8ZM1003.3,718.7c-.1-.1-.3-.2-.5-.4-.2-.1-.4-.2-.6-.3-.2,0-.5-.1-.7-.2-.2,0-.3,0-.4-.1-.1,0-.2,0-.4-.1-.1,0-.2,0-.3-.1,0,0-.1,0-.2-.1,0,0-.1-.1-.2-.2,0,0,0-.1,0-.2,0,0,0-.2,0-.2,0-.3.1-.5.3-.7.2-.2.5-.2,1-.2s.7,0,1.1.2c.3.1.6.3.7.5l.5-.9c-.7-.5-1.4-.7-2.2-.7s-.7,0-1,.1c-.3,0-.5.2-.8.4-.2.2-.4.4-.5.6-.1.3-.2.5-.2.9s0,.5.1.7c0,.2.2.3.4.5.2.1.4.3.6.3.2,0,.5.2.9.3.2,0,.4.1.5.1.1,0,.3,0,.4.1.2,0,.3.1.4.2,0,0,.2.1.3.2,0,0,.1.2.2.2,0,0,0,.2,0,.3,0,.3-.1.5-.3.6-.2.1-.5.2-1,.2s-.9,0-1.3-.3c-.4-.2-.7-.4-.9-.6l-.5.9c.4.3.8.5,1.3.7.5.2,1,.2,1.5.2s.5,0,.8,0c.2,0,.5-.1.7-.2.2,0,.4-.2.5-.4.1-.1.3-.3.3-.5,0-.2.1-.5.1-.7s0-.4-.1-.6c0-.2-.2-.3-.3-.5M1005.9,715.9h2.2v5.7h1.1v-5.7h2.2v-.9h-5.5v.9ZM1018.7,718.4c.2-.4.4-.8.4-1.2s0-.5-.2-.8c-.1-.3-.2-.5-.4-.7-.2-.2-.4-.4-.7-.5-.3-.1-.5-.2-.8-.2h-2.9v6.6h1v-2.3h1.5l1.4,2.3h1.2l-1.6-2.5c.4-.1.7-.4.9-.7M1017,718.4h-1.8v-2.5h1.8c.3,0,.5.1.7.4.2.2.3.5.3.9s0,.6-.3.9c-.2.2-.4.4-.7.4M1026.7,718.4c0,.2,0,.5,0,.7,0,.2,0,.4-.2.6,0,.2-.2.4-.3.5-.1.1-.3.3-.5.4-.2,0-.5.1-.7.1s-.5,0-.7-.1c-.2,0-.4-.2-.5-.4-.1-.1-.2-.3-.3-.5,0-.2-.2-.4-.2-.6,0-.2,0-.5,0-.7v-3.4h-1v3.4c0,.4,0,.7,0,1,0,.3.2.6.3.9.1.3.3.5.5.7.2.2.5.4.8.5.3.1.7.2,1.1.2s.9,0,1.3-.3c.4-.2.7-.4.9-.7.2-.3.4-.7.5-1,.1-.4.2-.8.2-1.3v-3.4h-1.1v3.4ZM1035.1,720.3c-.2.2-.4.3-.6.4-.2,0-.4.1-.7.1-.4,0-.8-.1-1.1-.3-.3-.2-.6-.5-.8-.9-.2-.4-.3-.8-.3-1.2s0-.5,0-.7c0-.2.1-.4.3-.7.1-.2.3-.4.4-.5.2-.2.4-.3.6-.4.2,0,.5-.1.7-.1s.3,0,.5,0c.2,0,.3,0,.5.2.2,0,.3.2.4.3.1.1.2.3.3.5l.8-.6c-.2-.4-.6-.8-1-1-.4-.3-.9-.4-1.5-.4s-.8,0-1.1.2c-.3.1-.6.3-.9.5-.3.2-.5.5-.7.7-.2.3-.3.6-.4.9,0,.3-.1.6-.1,1s0,.8.2,1.2c.1.4.3.7.6,1.1.3.3.6.6.9.8s.8.3,1.2.4c.3.2.5.4.5.7s0,.3-.1.3c0,0-.2.1-.4.1s-.4,0-.7-.2l-.3.6c.3.2.7.3,1.1.3s.6,0,.8-.2c.2-.2.3-.4.3-.6s-.2-.6-.5-.9c.5,0,.9-.2,1.4-.5.4-.3.7-.6.9-1l-.9-.5c-.1.2-.3.5-.5.6M1041.1,715l-2.6,6.6h1.1l.7-1.8h2.6l.7,1.8h1.1l-2.6-6.6h-1ZM1040.5,719.1l1.1-2.9,1.1,2.9h-2.2ZM1040.5,714.1s0,0,0-.1c0,0,0-.1.1-.2,0,0,.1,0,.2,0s.2,0,.3,0c.1,0,.3.1.4.2.1,0,.3.1.5.1s.3,0,.4,0c.1,0,.2-.1.3-.2,0,0,.1-.2.2-.3,0-.1,0-.2.1-.3,0,0,0-.1,0-.2h-.6s0,0,0,0c0,0,0,0,0,.1,0,0,0,0,0,.1,0,0,0,0-.1.1,0,0-.1,0-.2,0-.1,0-.3,0-.4-.1-.1,0-.3-.1-.4-.2-.1,0-.3-.1-.4-.1s-.3,0-.4,0-.2.1-.3.2c0,0-.1.2-.2.3,0,.1,0,.2-.1.3,0,0,0,.1,0,.2h.6s0,0,0,0M1052.8,717.1c-.2-.4-.4-.8-.6-1.1s-.6-.6-1-.8c-.4-.2-.8-.3-1.3-.3s-.9,0-1.3.3c-.4.2-.7.4-1,.7-.3.3-.5.7-.7,1.1-.2.4-.2.8-.2,1.3s0,.7.1,1c0,.3.2.6.4.9.2.3.4.5.7.7.3.2.5.4.9.5.3.1.7.2,1.1.2s.9,0,1.3-.3c.4-.2.7-.4,1-.7.3-.3.5-.7.7-1.1.2-.4.2-.8.2-1.3s0-.8-.2-1.2M1051.8,719.2c0,.3-.2.5-.4.8-.2.2-.4.4-.7.6-.3.1-.6.2-.9.2s-.8-.1-1.1-.3c-.3-.2-.6-.5-.7-.9-.2-.4-.3-.8-.3-1.2s0-.6.1-.9.2-.5.4-.8c.2-.2.4-.4.7-.5.3-.1.6-.2.9-.2s.6,0,.9.2.5.3.7.5c.2.2.3.5.4.8.1.3.2.6.2.9s0,.6-.1.9"/>
        <path class="st0" d="M906.3,648.3h2.3c-.2.5-.8,1-1.7,1-1.3,0-2.2-.9-2.2-2.2s.9-2.2,2.1-2.2,1.5.4,1.8,1.1l1.9-1.2c-.8-1.3-2.2-2.1-3.8-2.1-2.5,0-4.4,2-4.4,4.4s1.9,4.4,4.4,4.4,4.1-1.7,4.1-4.3v-.7h-4.7v1.8ZM918.6,642.6c-2.5,0-4.4,2-4.4,4.4s2,4.4,4.4,4.4,4.4-2,4.4-4.4-2-4.4-4.4-4.4M918.6,649.1c-1.1,0-2-.9-2-2.1s.9-2.1,2-2.1,2,.9,2,2.1-.9,2.1-2,2.1M929.5,648l-2-5.2h-2.4l3.3,8.4h2.3l3.3-8.4h-2.4l-2,5.2ZM936.9,651.3h6v-2.1h-3.8v-1.3h2.5v-1.8h-2.5v-1.3h3.8v-2.1h-6v8.4ZM953.4,645.6c0-1.6-1.3-2.7-2.9-2.7h-4.1v8.4h2.2v-2.9h1l1.7,2.9h2.5l-1.9-3.2c.9-.5,1.5-1.4,1.5-2.4M950.3,646.4h-1.6v-1.6h1.6c.5,0,.9.4.9.8s-.3.8-.9.8M962.3,647.3l-3.4-4.4h-1.9v8.4h2.2v-4.4l3.4,4.4h1.9v-8.4h-2.2v4.4ZM972.2,642.6c-2.5,0-4.4,2-4.4,4.4s2,4.4,4.4,4.4,4.4-2,4.4-4.4-2-4.4-4.4-4.4M972.2,649.1c-1.1,0-2-.9-2-2.1s.9-2.1,2-2.1,2,.9,2,2.1-.9,2.1-2,2.1M985.5,651.3h2.3v-3.1h2.5v-1.9h-2.5v-1.4h3.8v-2h-6v8.4ZM994.9,651.3h6v-2.1h-3.8v-1.3h2.5v-1.8h-2.5v-1.3h3.8v-2.1h-6v8.4ZM1007.9,642.8h-3.4v8.4h3.4c2.6,0,4.5-1.8,4.5-4.2s-1.9-4.2-4.5-4.2M1007.8,649.1h-1v-4h1c1.3,0,2.3.8,2.3,2s-.9,2-2.3,2M1015.6,651.3h6v-2.1h-3.8v-1.3h2.5v-1.8h-2.5v-1.3h3.8v-2.1h-6v8.4ZM1032.2,645.6c0-1.6-1.3-2.7-2.9-2.7h-4.1v8.4h2.2v-2.9h1l1.7,2.9h2.5l-1.9-3.2c.9-.5,1.5-1.4,1.5-2.4M1029,646.4h-1.6v-1.6h1.6c.5,0,.9.4.9.8s-.3.8-.9.8M1038.6,642.8l-3.5,8.4h2.4l.6-1.4h3.3l.6,1.4h2.4l-3.6-8.4h-2.2ZM1038.8,647.8l.8-2.1.8,2.1h-1.7ZM1049.6,649.1v-6.3h-2.4v8.4h5.9v-2.2h-3.5Z"/>
        <path class="st0" d="M986.6,691.8l7.5,12.6h6.2v-23.9h-13.7s0,11.2,0,11.2ZM1005.8,676.9h-4.7v27.5h4.7c7.6,0,13.7-6.2,13.7-13.7s-6.2-13.7-13.7-13.7M996.1,679.7h4.3v-18.9h-4.3c-5.2,0-9.5,4.2-9.5,9.5s4.2,9.5,9.5,9.5M921.1,661.7v25.1h16.3l-16.3-25.1ZM1038.2,689.5h14.6v-28.7h-14.6v28.7ZM1016.9,660.8h-15.8v15.3h15.8v-15.3ZM1053.6,704.4h14.6v-14.1h-14.6v14.1ZM1038.2,704.4h14.6v-14.1h-14.6v14.1ZM1020.3,704.4h14.6v-43.6h-14.6v43.6ZM986.6,704.4h6.6l-6.6-11.1v11.1ZM914.4,669.3c0-4.7-3.8-8.5-8.5-8.5h-3.2v17h3.2c4.7,0,8.5-3.8,8.5-8.5M887.4,677.8h14.6v-17h-14.6v17ZM887.4,704.4h14.6v-25.8h-14.6v25.8ZM907.4,678.6h-4.7v25.8h4.7c7.1,0,12.9-5.8,12.9-12.9s-5.8-12.9-12.9-12.9M945.1,698.8l-3.3,5.6h7l-3.6-5.6ZM945.6,698l4.1,6.4h1.2c.1-4.3,1.9-8.4,5-11.4,3.1-3.1,7.2-4.8,11.6-4.8s8.5,1.7,11.6,4.8c3.1,3,4.9,7.1,5,11.4h1.7v-12.4l-18.3-30.8-21.9,36.8ZM951.1,673.8c0-7.2-5.8-13-13-13h-16.7l16.9,26c7.1-.1,12.8-5.9,12.8-13M967.5,689c-4.2,0-8.1,1.6-11.1,4.5-3,2.9-4.6,6.8-4.7,10.9h31.6c-.1-4.1-1.8-8-4.7-10.9-3-2.9-6.9-4.5-11.1-4.5M937.9,687.6h-16.8v16.8h19.8l3.8-6.3-6.8-10.4Z"/>
      </g>
    </g>
    <g>
      <rect class="st0" x="902.7" y="457.2" width="29.3" height="7.1"/>
      <path class="st0" d="M1028.4,471.2c0,0,0-.1,0-.2.2-.8.2-1.5,0-2-.5-.8-1.7-1.1-3.9-1.1h-5.1l-3.1,10.8h3.5l1.1-3.8h1.1c.7,0,1.1,0,1.3.3.4.3.3.8,0,1.6,0,0,0,.1,0,.2-.2.9-.3,1.5-.3,1.7h3.6v-.3c-.3,0-.2-.5.3-1.9.6-2.2,0-2.5-1-2.9,1.3-.3,2.1-1.3,2.5-2.4ZM1025,471.6c-.2.7-.8,1-1.7,1h-1.7l.6-2.2h1.7c.8,0,1.3.4,1.1,1.1Z"/>
      <polygon class="st0" points="978.1 469.3 978.6 467.9 978.1 467.9 968.6 467.9 967.8 470.8 971 470.8 968.7 478.7 972.3 478.7 974.5 470.8 977.7 470.8 978.1 469.3"/>
      <path class="st0" d="M950.7,467.9h-1.4s-3.8,0-3.8,0l-3.1,10.8h3.6l1-3.4h1.8c.2,0,.4,0,.6,0h0c2.8-.2,4.4-1.6,5-3.8.6-2.2-.5-3.6-3.6-3.6ZM950.9,471.6c-.3.9-.9,1.2-1.6,1.3h-1.6s.7-2.4.7-2.4h1s0,0,0,0c.8,0,1.9.1,1.6,1.1Z"/>
      <path class="st0" d="M1012.2,467.9h-5.2l-3.1,10.8h5.3c.2,0,.5,0,.7,0,2.5-.1,4.3-1,4.9-3.2.3-1.2,0-2.2-1.1-2.5.8-.4,1.8-1.2,2.1-2.4.6-2.2-1.2-2.7-3.6-2.7ZM1011.6,475.2c-.2.8-.9,1-1.7,1h-1.7l.6-2h1.1c1.1,0,1.9,0,1.7,1ZM1012.3,471.3c-.2.6-.8.9-1.5.9h-1.5l.5-1.8h1.2c.8,0,1.4,0,1.2.9Z"/>
      <polygon class="st0" points="954.5 478.7 963.5 478.7 964.2 476.2 958.7 476.2 959.2 474.5 963.7 474.5 964.4 472 959.9 472 960.4 470.4 965.6 470.4 966.4 467.9 957.5 467.9 954.5 478.7"/>
      <path class="st0" d="M998.8,467.6c-.5,0-1.1,0-1.6.2-2.7.6-4.8,2.6-5.7,5.4-1,3.7.6,5.8,4,5.8s1.1,0,1.6-.2c2.6-.6,4.8-2.5,5.7-5.6.8-2.9-.2-5.6-4.1-5.6ZM999.4,473.3c-.4,1.4-1.1,2.6-2.1,3-.3,0-.6.2-.9.2-1.7,0-1.6-1.7-1.2-3.1.3-1.1,1-2.4,2.1-2.8.3,0,.5-.2.8-.2,1.6,0,1.7,1.5,1.3,3Z"/>
      <path class="st0" d="M1035.2,467.9l-.2.4-6.5,10.1-.2.3h3.5l.8-1.4h3.5v1.4h3.5l-.8-10.8h-3.6ZM1034.9,475.1h-1.1l1.1-2,1.1-1.9v3.9s-1.1,0-1.1,0Z"/>
      <path class="st0" d="M1052.9,471c.3-1.9-.7-3.4-3.7-3.4s-5,1.1-5.7,3.5c-1.2,4.1,5.4,3,4.9,4.7-.1.5-.8.8-1.7.8s-.7,0-.9-.3c-.3-.2-.4-.5-.4-.9h-3.4c-.5,1.9.9,3.6,3.8,3.6s5.4-1.2,6.1-3.7c1.1-3.9-5.4-2.9-4.9-4.6,0-.4.5-.6,1.3-.6s.6,0,.9.2.4.4.3.7h3.4Z"/>
      <path class="st0" d="M985.9,467.9h-5.1l-2.7,9.4-.4,1.4h3.6l1.1-3.8h1.1c.7,0,1.1,0,1.3.3.4.3.3.8,0,1.6,0,0,0,.1,0,.2-.2.9-.3,1.5-.3,1.7h3.6v-.3c-.3,0-.2-.5.3-1.9.6-2.2,0-2.5-1-2.9,1.4-.4,2.2-1.4,2.6-2.6.6-2.1-.3-3.1-3.9-3.1ZM986.4,471.6c-.2.7-.8,1-1.7,1h-1.7l.6-2.2h1.7c.8,0,1.3.4,1.1,1.1Z"/>
      <g>
        <path class="st0" d="M914.2,470.8c0-.5-.4-.8-.9-.8h-2.4l-.6,2h2.6c.8,0,1.3-.5,1.3-1.2Z"/>
        <path class="st0" d="M924.5,472.5c1.3,0,1.8-1,1.8-1.5s0-1-1.1-1h-2.3c0,0-.7,2.4-.7,2.4h2.4Z"/>
        <path class="st0" d="M928.8,469.6c.4,1,0,2-.3,2.6-.3.6-1.1,1.4-2.1,1.7.5,0,1.1.4,1.1,1.3,0,.2.1,3.6.1,3.6h-3s-.1-3-.1-3c0-.4,0-1.2-1.2-1.2h-1.8l-1.2,4.1h-3.2l3.1-10.8h-6.8c.9,0,2.2.2,2.9,1,.8,1,.6,2.2.2,2.9,0,.1-.6,1-1.4,1.4,0,0,.8.5,1,1.2.3,1,0,2.5-.8,3.2-.6.5-1,1.1-3.8,1.1h-6.4l3.1-10.8h-5.6v18.6h29.3v-18.6h-6.1c1,0,2.4.3,2.9,1.7Z"/>
        <path class="st0" d="M911.8,474.1h-2.1s-.7,2.3-.7,2.3h2.3c1.3,0,1.5-.7,1.7-.9,0-.2.2-.7,0-.9-.1-.2-.2-.5-1.2-.5Z"/>
      </g>
    </g>
    <g>
      <polygon class="st0" points="919.1 393.2 919.1 393.2 919.1 393.1 919.1 393.2"/>
      <polygon class="st0" points="930.9 390.9 925.2 393.2 930.9 395.4 968.7 395.4 968.7 391 930.9 390.9"/>
      <polygon class="st0" points="930.9 395.4 924.7 395.4 928.9 399.4 963.2 412.9 964.8 408.7 930.9 395.4"/>
      <polygon class="st0" points="928.9 399.4 923.2 397.1 925.1 401.9 949.6 425.3 952.7 422.1 928.9 399.4"/>
      <polygon class="st0" points="925.1 401.9 920.8 397.9 920.4 402.2 931.4 429.3 935.5 427.6 925.1 401.9"/>
      <polygon class="st0" points="916.2 399.5 913.6 423.3 918 423.8 920.4 402 918.4 397.1 916.2 399.5"/>
      <polygon class="st0" points="919.1 393.2 919.1 393.2 919.1 393.1 919.1 393.2"/>
      <polygon class="st0" points="914.1 395.4 901.3 409.3 904.6 412.3 916.2 399.6 916.7 395.4 914.1 395.4"/>
      <polygon class="st0" points="914.1 390.9 898.2 390.9 898.2 395.3 914.1 395.3 916.1 393.1 914.1 390.9"/>
      <polygon class="st0" points="919.1 393.2 919.1 393.2 919.1 393.2 919.1 393.2"/>
      <polygon class="st0" points="916.2 386.7 904.6 374 901.3 377 914.1 390.9 916.7 390.9 916.2 386.7"/>
      <polygon class="st0" points="920.4 383.9 918 362.2 913.6 362.7 916.2 386.5 918.4 388.9 920.4 383.9"/>
      <polygon class="st0" points="925.1 384.4 935.5 358.8 931.4 357.1 920.4 384.2 920.8 388.4 925.1 384.4"/>
      <polygon class="st0" points="928.9 387 952.7 364.3 949.6 361 925.1 384.4 923.2 389.2 928.9 387"/>
      <polygon class="st0" points="963.2 373.5 928.9 387 924.7 390.9 930.9 390.9 964.8 377.6 963.2 373.5"/>
      <polygon class="st0" points="978.9 386.1 978.9 376.5 981.6 376.5 981.6 383.8 985.9 383.8 985.9 386.1 978.9 386.1"/>
      <path class="st0" d="M988.9,381.8h2.3c0-.3-.2-.6-.4-.8-.2-.2-.5-.3-.8-.3s-.6,0-.8.3c-.2.2-.3.5-.4.8M990.1,386.2c-.5,0-.9,0-1.4-.2-.4-.1-.8-.3-1.1-.5-.3-.2-.6-.5-.8-.8-.2-.3-.4-.6-.5-1s-.2-.7-.2-1.1,0-1,.3-1.5c.2-.5.4-.9.7-1.2.3-.3.7-.6,1.2-.8s1.1-.3,1.7-.3,1.2,0,1.7.3c.5.2.9.5,1.2.8.3.3.6.7.7,1.2.2.4.3.9.3,1.4s0,.5,0,.8h-5c0,.4.2.6.4.8s.5.3.8.3.5,0,.8-.2c.2-.1.4-.3.5-.5l2.2.6c-.3.6-.8,1.1-1.4,1.4-.6.3-1.3.5-2.2.5"/>
      <path class="st0" d="M994.9,379h2.6v7.1h-2.6v-7.1ZM994.9,376.3h2.6v2.2h-2.6v-2.2Z"/>
      <g>
        <path class="st0" d="M1004.5,380.9h1.7c.2,0,.3,0,.5-.3s.2-.4.2-.7,0-.6-.2-.7c-.2-.2-.3-.3-.5-.3h-1.6v2ZM1001.9,386.1v-9.6h4.4c.5,0,.9,0,1.3.3.4.2.8.4,1,.8s.5.7.7,1.1c.2.4.2.8.2,1.2s-.1,1.1-.4,1.6c-.2.5-.6.9-1,1.2l2,3.5h-2.9l-1.7-2.9h-1.1v2.9h-2.6Z"/>
        <path class="st0" d="M1013.4,383.7c.2.3.5.4.9.4s.7-.1.9-.4c.2-.3.3-.6.3-1.1s-.1-.8-.3-1.1c-.2-.3-.5-.4-.9-.4s-.7.1-.9.4c-.2.3-.3.6-.3,1.1s.1.8.4,1.1M1010.4,382.5c0-.5,0-1,.3-1.4.2-.4.4-.8.7-1.2.3-.3.7-.6,1.2-.8s1.1-.3,1.7-.3,1.2,0,1.7.3c.5.2.9.5,1.2.8.3.3.6.7.7,1.2.2.4.3.9.3,1.4s0,1-.3,1.4c-.2.4-.4.8-.7,1.2-.3.3-.7.6-1.2.8-.5.2-1.1.3-1.7.3s-1.2,0-1.7-.3-.9-.5-1.2-.8c-.3-.3-.6-.7-.7-1.2-.2-.4-.3-.9-.3-1.4"/>
        <path class="st0" d="M1019,383.7v-4.7h2.6v4.1c0,.3,0,.5.2.7.1.2.3.3.6.3.5,0,.9-.2,1.2-.7v-4.3h2.6v4.3c0,.2,0,.4.1.5,0,0,.2.2.4.2v2.2c-.4,0-.8.1-1.1.1-.9,0-1.4-.3-1.5-1v-.3c-.7.8-1.6,1.2-2.8,1.2s-1.3-.2-1.6-.7c-.4-.4-.6-1.1-.6-1.9"/>
        <path class="st0" d="M1031.4,384.1c.2-.1.3-.3.3-.5v-.5c-.3-.1-.7-.2-1-.2s-.6,0-.8.2c-.2.2-.3.3-.3.6s0,.4.2.5c.2.1.4.2.6.2s.6,0,.9-.3M1027.3,383.9c0-.7.3-1.3.9-1.7.6-.5,1.3-.7,2.2-.7s1.1,0,1.4.3v-.2c0-.3,0-.6-.3-.7-.2-.2-.5-.2-.9-.2s-.7,0-1.1.2c-.3.1-.7.3-1.1.6l-.7-1.6c.9-.6,2-.9,3.2-.9s2,.3,2.6.8c.6.5.9,1.3.9,2.2v1.4c0,.2,0,.4.1.5,0,0,.2.2.4.2v2.2c-.4,0-.8.1-1.1.1-.9,0-1.4-.3-1.5-1v-.3c-.7.8-1.5,1.2-2.5,1.2s-1.3-.2-1.8-.6c-.5-.4-.7-1-.7-1.6"/>
        <path class="st0" d="M1042.9,386.1h-2.6v-4c0-.3,0-.6-.2-.7-.1-.2-.3-.3-.6-.3s-.5,0-.7.3c-.2.2-.4.4-.5.7v4h-2.6v-7.1h2.3v1c.2-.4.6-.7,1.1-.9.5-.2,1-.3,1.6-.3s.6,0,.8.1c.2,0,.4.2.6.3.2.1.3.3.4.5.1.2.2.4.2.6,0,.2,0,.4.1.6,0,.2,0,.3,0,.5v4.7Z"/>
        <path class="st0" d="M1046.4,381.8h2.3c0-.3-.2-.6-.4-.8-.2-.2-.5-.3-.8-.3s-.6,0-.8.3c-.2.2-.3.5-.4.8M1047.6,386.2c-.5,0-.9,0-1.4-.2-.4-.1-.8-.3-1.1-.5-.3-.2-.6-.5-.8-.8-.2-.3-.4-.6-.5-1s-.2-.7-.2-1.1,0-1,.3-1.5c.2-.5.4-.9.7-1.2.3-.3.7-.6,1.2-.8s1.1-.3,1.7-.3,1.2,0,1.7.3c.5.2.9.5,1.2.8.3.3.6.7.7,1.2.2.4.3.9.3,1.4s0,.5,0,.8h-5c0,.4.2.6.4.8s.5.3.8.3.5,0,.8-.2c.2-.1.4-.3.5-.5l2.2.6c-.3.6-.8,1.1-1.4,1.4-.6.3-1.3.5-2.2.5"/>
        <path class="st0" d="M1057.3,385.7c-.8.4-1.6.5-2.4.5s-.6,0-.8-.1c-.2,0-.5-.2-.7-.3-.2-.2-.4-.4-.5-.6-.1-.3-.2-.6-.2-1v-3.2h-.9v-1.9h.9v-2.2h2.6v2.2h1.4v1.9h-1.4v2.3c0,.4.2.6.6.6s.5,0,.9-.2l.5,2Z"/>
      </g>
      <rect class="st0" x="979.5" y="391.3" width="1" height="6.3"/>
      <g>
        <path class="st0" d="M985.9,397.5h-1v-2.6c0-.4,0-.7-.2-.9-.1-.2-.3-.3-.6-.3s-.6.1-.8.3c-.3.2-.5.5-.6.8v2.7h-1v-4.6h.9v.9c.2-.3.4-.6.8-.7.3-.2.7-.3,1.1-.3s.4,0,.6,0c.2,0,.3.2.4.3.1.1.2.2.2.4,0,.2.1.3.1.5,0,.2,0,.4,0,.6v2.8Z"/>
        <path class="st0" d="M989.1,397.6c-.5,0-.9-.1-1.2-.3-.4-.2-.7-.5-.8-.9-.2-.4-.3-.8-.3-1.2s0-.6.2-.9c.1-.3.3-.5.5-.8.2-.2.5-.4.8-.5.3-.1.6-.2,1-.2s.9.1,1.2.3c.3.2.6.5.8.8l-.9.3c-.1-.2-.3-.3-.4-.5-.2-.1-.4-.2-.6-.2-.4,0-.7.1-1,.4-.3.3-.4.7-.4,1.1s.1.8.4,1.1c.3.3.6.5,1,.5s.5,0,.7-.2c.2-.1.4-.3.4-.4l1,.3c-.2.4-.4.6-.8.9-.4.2-.8.3-1.3.3"/>
        <path class="st0" d="M992.6,394.9h2.8c0-.4-.2-.7-.4-1-.3-.3-.6-.4-1-.4s-.7.1-1,.4c-.3.3-.4.6-.4,1M994,397.6c-.5,0-.9-.1-1.3-.3-.4-.2-.6-.5-.8-.9-.2-.4-.3-.8-.3-1.2s0-.6.2-.9.3-.5.5-.8c.2-.2.5-.4.8-.5.3-.1.6-.2,1-.2s.7,0,1,.2c.3.1.5.3.7.5.2.2.4.5.5.7.1.3.2.6.2.9s0,.2,0,.4h-3.7c0,.4.2.7.4,1,.3.3.6.4.9.4s.5,0,.7-.2c.2-.1.4-.3.5-.5l.8.2c-.2.4-.4.6-.8.9-.4.2-.8.3-1.3.3"/>
        <path class="st0" d="M1001.2,397.5h-1v-2.6c0-.4,0-.7-.2-.9-.1-.2-.3-.3-.6-.3s-.6.1-.8.3c-.3.2-.5.5-.6.8v2.7h-1v-4.6h.9v.9c.2-.3.4-.6.8-.7.3-.2.7-.3,1.1-.3s.4,0,.6,0c.2,0,.3.2.4.3.1.1.2.2.2.4,0,.2.1.3.1.5,0,.2,0,.4,0,.6v2.8Z"/>
        <path class="st0" d="M1004.8,397.3c-.4.2-.8.3-1.2.3s-.6,0-.8-.3c-.2-.2-.3-.4-.3-.8v-2.9h-.6v-.7h.6v-1.5h1v1.5h1v.7h-1v2.6c0,.2,0,.3.1.4s.2.1.3.1c.2,0,.4,0,.7-.2l.2.8Z"/>
      </g>
      <path class="st0" d="M1005.5,392.9h1v4.6h-1v-4.6ZM1005.5,391.1h1v1.1h-1v-1.1Z"/>
      <polygon class="st0" points="1008.9 397.5 1007.1 392.9 1008.1 392.9 1009.4 396.6 1010.7 392.9 1011.7 392.9 1009.9 397.5 1008.9 397.5"/>
      <g>
        <path class="st0" d="M1013.4,396.3c.3.3.6.4,1,.4s.7-.2,1-.5c.3-.3.4-.7.4-1.1s-.1-.8-.4-1.1c-.3-.3-.6-.4-1-.4s-.7.2-1,.5c-.3.3-.4.7-.4,1.1s.1.8.4,1.1M1012.2,396.1c-.1-.3-.2-.6-.2-.9s0-.6.2-.9c.1-.3.3-.5.5-.8s.5-.4.8-.5c.3-.1.6-.2,1-.2s.9.1,1.2.3c.4.2.6.5.8.9.2.4.3.8.3,1.2s0,.8-.3,1.2c-.2.4-.5.7-.8.9-.4.2-.8.3-1.2.3s-.7,0-1-.2c-.3-.1-.6-.3-.8-.5-.2-.2-.4-.5-.5-.8"/>
        <path class="st0" d="M1022.3,396.5c.2-.2.2-.3.2-.4v-.5c-.3-.1-.7-.2-1.1-.2s-.6,0-.9.2c-.2.1-.3.3-.3.6s0,.4.3.6c.2.2.4.2.7.2s.4,0,.6-.1c.2,0,.4-.2.5-.3M1019.4,396.2c0-.4.2-.8.5-1.1.4-.3.8-.4,1.4-.4s.9,0,1.2.2v-.3c0-.3,0-.6-.3-.8-.2-.2-.5-.3-.8-.3s-.5,0-.7.1c-.2,0-.5.2-.7.4l-.3-.6c.6-.4,1.2-.6,1.9-.6s1.1.2,1.5.5c.4.3.5.8.5,1.4v1.7c0,.1,0,.2,0,.2,0,0,.1,0,.2,0v.8c-.2,0-.3,0-.4,0-.2,0-.3,0-.5-.1s-.2-.2-.2-.4v-.3c-.2.3-.5.5-.8.6-.3.1-.6.2-.9.2s-.8-.1-1.1-.4c-.3-.3-.4-.6-.4-1"/>
        <path class="st0" d="M980.5,405h1.6c.3,0,.5-.1.7-.3.2-.2.3-.5.3-.8s0-.6-.3-.8c-.2-.2-.4-.3-.7-.3h-1.6v2.3ZM979.5,408.1v-6.3h2.6c.4,0,.7,0,1,.3.3.2.5.5.7.8.2.3.2.6.2,1s0,.5-.1.8c0,.2-.2.5-.4.7-.2.2-.4.3-.6.5-.2.1-.5.2-.8.2h-1.7v2.2h-1Z"/>
        <path class="st0" d="M987.4,404.3c-.4,0-.7,0-1,.3-.3.2-.5.4-.6.7v2.8h-1v-4.6h.9v1c.2-.3.4-.6.6-.8s.5-.3.8-.3c.1,0,.2,0,.2,0v.9Z"/>
        <path class="st0" d="M989.2,406.9c.3.3.6.4,1,.4s.7-.2,1-.5c.3-.3.4-.7.4-1.1s-.1-.8-.4-1.1c-.3-.3-.6-.4-1-.4s-.7.2-1,.5c-.3.3-.4.7-.4,1.1s.1.8.4,1.1M988,406.7c-.1-.3-.2-.6-.2-.9s0-.6.2-.9c.1-.3.3-.5.5-.8.2-.2.5-.4.8-.5.3-.1.6-.2,1-.2s.9.1,1.2.3c.4.2.6.5.8.9.2.4.3.8.3,1.2s0,.8-.3,1.2c-.2.4-.5.7-.8.9-.4.2-.8.3-1.2.3s-.7,0-1-.2c-.3-.1-.5-.3-.7-.5-.2-.2-.4-.5-.5-.8"/>
        <path class="st0" d="M993.4,401.7h1v1.1h-1v-1.1ZM991.8,409.4l.4-.7c.1.1.3.2.6.2s.3,0,.5-.2c.1-.1.2-.3.2-.5v-4.8h1v4.7c0,.5-.1.8-.4,1.1-.3.3-.6.4-1.1.4s-.8-.1-1.1-.4"/>
        <path class="st0" d="M996.2,405.5h2.8c0-.4-.2-.7-.4-1-.3-.3-.6-.4-1-.4s-.7.1-1,.4c-.3.3-.4.6-.4,1M997.6,408.2c-.5,0-.9-.1-1.3-.3-.4-.2-.6-.5-.8-.9-.2-.4-.3-.8-.3-1.2s0-.6.2-.9.3-.5.5-.8c.2-.2.5-.4.8-.5.3-.1.6-.2,1-.2s.7,0,1,.2c.3.1.5.3.7.5.2.2.4.5.5.7.1.3.2.6.2.9s0,.2,0,.4h-3.7c0,.4.2.7.4,1,.3.3.6.4.9.4s.5,0,.7-.2c.2-.1.4-.3.5-.5l.8.2c-.2.4-.4.6-.8.9-.4.2-.8.3-1.3.3"/>
        <path class="st0" d="M1003.3,407.9c-.4.2-.8.3-1.2.3s-.6,0-.8-.3c-.2-.2-.3-.4-.3-.8v-2.9h-.6v-.7h.6v-1.5h1v1.5h1v.7h-1v2.6c0,.2,0,.3.1.4s.2.1.3.1c.2,0,.4,0,.7-.2l.2.8Z"/>
        <path class="st0" d="M1005,406.9c.3.3.6.4,1,.4s.7-.2,1-.5c.3-.3.4-.7.4-1.1s-.1-.8-.4-1.1c-.3-.3-.6-.4-1-.4s-.7.2-1,.5-.4.7-.4,1.1.1.8.4,1.1M1003.8,406.7c-.1-.3-.2-.6-.2-.9s0-.6.2-.9c.1-.3.3-.5.5-.8.2-.2.5-.4.8-.5.3-.1.6-.2,1-.2s.9.1,1.2.3c.4.2.6.5.8.9.2.4.3.8.3,1.2s0,.8-.3,1.2c-.2.4-.5.7-.8.9-.4.2-.8.3-1.2.3s-.7,0-1-.2c-.3-.1-.5-.3-.7-.5-.2-.2-.4-.5-.5-.8"/>
        <path class="st0" d="M1010.8,408.2c-.4,0-.8,0-1.1-.2s-.6-.3-.9-.6l.4-.6c.5.4,1,.7,1.6.7s.5,0,.7-.2c.2-.1.2-.3.2-.4h0c0-.1,0-.2,0-.2h0c0,0-.1-.2-.1-.2h-.1c0,0-.2-.1-.2-.1h-.2c0,0-.1,0-.2-.1,0,0-.2,0-.2,0-.3,0-.5-.2-.7-.2-.2,0-.3-.2-.5-.3-.1-.1-.2-.2-.3-.4,0-.1,0-.3,0-.5,0-.4.2-.8.5-1,.3-.3.8-.4,1.3-.4s1.3.2,1.7.6l-.4.6c-.4-.4-.8-.5-1.3-.5s-.4,0-.6.1c-.2,0-.2.2-.2.4v.2s.1.1.1.1c0,0,.1,0,.2.1,0,0,.2,0,.3,0,0,0,.2,0,.3.1.1,0,.3,0,.3.1,0,0,.2,0,.3,0s.2,0,.3.1h.2c0,.1.2.3.2.3l.2.2v.2c.1,0,.2.2.2.2,0,0,0,.2,0,.3,0,.4-.2.8-.5,1-.3.3-.8.4-1.3.4"/>
        <path class="st0" d="M1018.3,401.8c.5,0,1,.1,1.4.4.4.2.7.6.9,1l-.8.5c0-.2-.2-.3-.3-.5-.1-.1-.3-.2-.4-.3-.1,0-.3-.1-.5-.2-.1,0-.3,0-.5,0-.3,0-.5,0-.7.1-.2,0-.4.2-.6.4-.2.1-.3.3-.4.5-.1.2-.2.4-.2.6s0,.4,0,.7c0,.4,0,.8.3,1.1.2.4.4.6.7.8.3.2.7.3,1,.3s.4,0,.6-.1c.2,0,.4-.2.6-.3.2-.2.3-.4.4-.6l.8.5c-.1.3-.3.6-.6.8-.3.2-.6.4-.9.5-.3.1-.7.2-1,.2s-.8,0-1.2-.3c-.4-.2-.7-.4-1-.7-.3-.3-.5-.6-.6-1-.1-.4-.2-.8-.2-1.2s0-.6.1-.9c0-.3.2-.6.4-.8.2-.3.4-.5.6-.7.2-.2.5-.4.8-.5.3-.1.7-.2,1-.2"/>
        <path class="st0" d="M1021.5,406.3v-2.8h1v2.6c0,.4,0,.7.2.9.1.2.4.3.7.3s.5,0,.8-.3.4-.4.6-.7v-2.9h1v3.5c0,.1,0,.2,0,.2,0,0,.1,0,.2,0v.8c-.2,0-.3,0-.4,0-.2,0-.3,0-.4-.1-.1,0-.2-.2-.2-.4v-.5c-.2.3-.5.6-.8.8-.3.2-.7.3-1.1.3s-.8-.2-1.1-.5c-.2-.3-.4-.8-.4-1.4"/>
        <path class="st0" d="M1026.9,401.7h1v5.1c0,.2,0,.4,0,.4,0,0,.2.1.3.1.2,0,.4,0,.6-.1v.8c0,0-.2.1-.4.2-.2,0-.4,0-.5,0-.3,0-.6,0-.8-.3-.2-.2-.3-.4-.3-.8v-5.5Z"/>
        <path class="st0" d="M1032.1,407.9c-.4.2-.8.3-1.2.3s-.6,0-.8-.3c-.2-.2-.3-.4-.3-.8v-2.9h-.6v-.7h.6v-1.5h1v1.5h1v.7h-1v2.6c0,.2,0,.3.1.4s.2.1.3.1c.2,0,.4,0,.7-.2l.2.8Z"/>
        <path class="st0" d="M1032.7,406.3v-2.8h1v2.6c0,.4,0,.7.2.9.1.2.4.3.7.3s.5,0,.8-.3.4-.4.6-.7v-2.9h1v3.5c0,.1,0,.2,0,.2,0,0,.1,0,.2,0v.8c-.2,0-.3,0-.4,0-.2,0-.3,0-.4-.1-.1,0-.2-.2-.2-.4v-.5c-.2.3-.5.6-.8.8-.3.2-.7.3-1.1.3s-.8-.2-1.1-.5c-.2-.3-.4-.8-.4-1.4"/>
        <path class="st0" d="M1040.6,404.3c-.4,0-.7,0-1,.3-.3.2-.5.4-.6.7v2.8h-1v-4.6h.9v1c.2-.3.4-.6.6-.8s.5-.3.8-.3c.1,0,.2,0,.2,0v.9Z"/>
        <path class="st0" d="M1043.9,407c.2-.2.2-.3.2-.4v-.5c-.3-.1-.7-.2-1.1-.2s-.6,0-.9.2c-.2.1-.3.3-.3.6s0,.4.3.6c.2.2.4.2.7.2s.4,0,.6-.1c.2,0,.4-.2.5-.3M1041,406.7c0-.4.2-.8.5-1.1.4-.3.8-.4,1.4-.4s.9,0,1.2.2v-.3c0-.3,0-.6-.3-.8-.2-.2-.5-.3-.8-.3s-.5,0-.7.1c-.2,0-.5.2-.7.4l-.3-.6c.6-.4,1.2-.6,1.9-.6s1.1.2,1.5.5c.4.3.5.8.5,1.4v1.7c0,.1,0,.2,0,.2,0,0,.1,0,.2,0v.8c-.2,0-.3,0-.4,0-.2,0-.3,0-.5-.1-.1,0-.2-.2-.2-.4v-.3c-.2.3-.5.5-.8.6-.3.1-.6.2-.9.2s-.8-.1-1.1-.4c-.3-.3-.4-.6-.4-1"/>
      </g>
      <path class="st0" d="M1046.2,403.5h1v4.6h-1v-4.6ZM1046.2,401.7h1v1.1h-1v-1.1Z"/>
      <path class="st0" d="M1050,408.2c-.4,0-.8,0-1.1-.2s-.6-.3-.9-.6l.4-.6c.5.4,1,.7,1.6.7s.5,0,.7-.2c.2-.1.2-.3.2-.4h0c0-.1,0-.2,0-.2h0c0,0-.1-.2-.1-.2h-.1c0,0-.2-.1-.2-.1h-.2c0,0-.1,0-.2-.1,0,0-.2,0-.2,0-.3,0-.5-.2-.7-.2-.2,0-.3-.2-.5-.3-.1-.1-.2-.2-.3-.4,0-.1,0-.3,0-.5,0-.4.2-.8.5-1,.3-.3.8-.4,1.3-.4s1.3.2,1.7.6l-.4.6c-.4-.4-.8-.5-1.3-.5s-.4,0-.6.1c-.2,0-.2.2-.2.4v.2s.1.1.1.1c0,0,.1,0,.2.1,0,0,.2,0,.3,0,0,0,.2,0,.3.1.1,0,.3,0,.3.1,0,0,.2,0,.3,0s.2,0,.3.1h.2c0,.1.2.3.2.3l.2.2v.2c.1,0,.2.2.2.2,0,0,0,.2,0,.3,0,.4-.2.8-.5,1-.3.3-.8.4-1.3.4"/>
    </g>
  </g>
  <g>
    <g>
      <g>
        <path class="st0" d="M1123.4,483.2l-3.3,1.8v1.1h2v-.9h1.3v3.6h-1.3v-.9h0s-5.7,0-5.7,0h0v.9h-1.3v-4.1c0-2.4.8-3.3,2.4-3.3s2.2.6,2.5,1.7l2.2-1.3v-.9h1.3v2.2ZM1118.9,484.9c0-1.1-.5-1.6-1.4-1.6s-1.2.6-1.2,1.6v1.1h2.6v-1.2Z"/>
        <path class="st0" d="M1123.4,480.2h-1.3v-.9h0s-5.7,0-5.7,0h0v.9h-1.3v-7.6h2.9v1.3l-1.6.4v3.1h2.3v-1.3l-1-.2v-1.2l3.1.2v1.2h-.9v1.3h2.4v-3.1l-1.6-.6v-1.3l2.9.3v7.4Z"/>
        <path class="st0" d="M1123.1,465.2c.3.6.5,1.4.5,2.4,0,2.8-1.4,4-4.2,4s-4.6-1.4-4.6-4.2.1-1.5.3-1.9l-.4-1.3h3.1v1.3l-1.3.3c-.2.4-.3.9-.3,1.7,0,1.5.9,2.3,3,2.3s3.1-.7,3.1-2.5-.1-1.2-.4-1.6l-1.3-.4v-1.3l2.9.2-.3.9Z"/>
        <path class="st0" d="M1123.4,463h-1.3v-.9h0s-5.7,0-5.7,0h0v1h-1.3v-3.8h1.3v.9h0s5.7,0,5.7,0h0v-1h1.3v3.8Z"/>
        <path class="st0" d="M1123.1,452c.3.6.5,1.4.5,2.4,0,2.8-1.4,4-4.2,4s-4.6-1.4-4.6-4.2.1-1.5.3-1.9l-.4-1.3h3.1v1.3l-1.3.3c-.2.4-.3.9-.3,1.7,0,1.5.9,2.3,3,2.3s3.1-.7,3.1-2.5-.1-1.2-.4-1.6l-1.3-.4v-1.3l2.9.2-.3.9Z"/>
        <path class="st0" d="M1123.4,449.8h-1.3v-.9h0s-5.7,0-5.7,0h0v.9h-1.3v-4h1.3v1.2h0s5.7,0,5.7,0h0v-2.4l-1.7-.6v-1.3l3,.3v6.8Z"/>
        <path class="st0" d="M1123.4,442.1h-1.3v-.9h0s-5.7,0-5.7,0h0v.9h-1.3v-7.6h2.9v1.3l-1.6.4v3.1h2.3v-1.3l-1-.2v-1.2l3.1.2v1.2h-.9v1.3h2.4v-3.1l-1.6-.6v-1.3l2.9.3v7.4Z"/>
        <path class="st0" d="M1117.7,424.8l-1.2.3c-.2.4-.3.9-.3,1.5,0,1.2.3,1.7,1,1.7s1-.4,1.3-2c.4-2.3,1-3,2.5-3s2.7,1.2,2.7,3.6-.2,2.3-.5,3.1l-2.5.2v-1.4l1.4-.4c.1-.5.2-1,.2-1.5,0-1.2-.4-1.7-1.1-1.7s-1,.4-1.3,2c-.4,2.2-1,3-2.5,3s-2.5-1.4-2.5-3.4,0-1.3.3-2.2l-.4-1.1h3v1.3Z"/>
        <path class="st0" d="M1123.4,422.4h-1.3v-.9h0s-5.7,0-5.7,0h0v.9h-1.3v-7.6h2.9v1.3l-1.6.4v3.1h2.3v-1.3l-1-.2v-1.2l3.1.2v1.2h-.9v1.3h2.4v-3.1l-1.6-.6v-1.3l2.9.3v7.4Z"/>
        <path class="st0" d="M1123.4,405.9h-1.3v-.8h0s-5.7,0-5.7,0h0c0,0,6.7,2.1,6.7,2.1v2.1l-6.7,2h0c0,0,5.7.2,5.7.2h0v-.9h1.3v3.3h-1.3v-.9h0s-5.7-.1-5.7-.1h0v.9h-1.3v-4l6.1-1.7h0c0-.1-6.1-1.8-6.1-1.8v-3.9h1.3v.9h0s5.7,0,5.7,0h0v-.9h1.3v3.5Z"/>
        <path class="st0" d="M1123.4,401.6h-1.3v-.9h0s-5.7,0-5.7,0h0v.9h-1.3v-3.8c0-2.5.8-3.5,2.5-3.5s2.9,1.2,2.9,3.1,0,.9,0,1.4h1.8v-1.2h1.3v3.9ZM1116.3,398.9h2.7c0-.3,0-.6,0-1,0-1.1-.5-1.6-1.5-1.6s-1.3.6-1.3,1.7v.9Z"/>
        <path class="st0" d="M1123.4,388l-3.3,1.8v1.1h2v-.9h1.3v3.6h-1.3v-.9h0s-5.7,0-5.7,0h0v.9h-1.3v-4.1c0-2.4.8-3.3,2.4-3.3s2.2.6,2.5,1.7l2.2-1.3v-.9h1.3v2.2ZM1118.9,389.7c0-1.1-.5-1.6-1.4-1.6s-1.2.6-1.2,1.6v1.1h2.6v-1.2Z"/>
        <path class="st0" d="M1123.4,385.1h-1.3v-.9h0s-5.7,0-5.7,0h0v.9h-1.3v-7.6h2.9v1.3l-1.6.4v3.1h2.3v-1.3l-1-.2v-1.2l3.1.2v1.2h-.9v1.3h2.4v-3.1l-1.6-.6v-1.3l2.9.3v7.4Z"/>
        <path class="st0" d="M1123.6,375.2c0,.8-.4,1.2-1.2,1.2s-1.2-.4-1.2-1.2.4-1.2,1.2-1.2,1.2.4,1.2,1.2Z"/>
      </g>
      <g>
        <path class="st0" d="M1125.4,507.7h2.3v6.7c0,1-.6,2-1.5,2.4-.9.5-1.9.4-2.8-.1l-4-2.7-.9,1.4-.8-3.9,3.9-.8-.9,1.4,4,2.7c.1,0,.3,0,.4,0,.1,0,.2-.2.2-.4v-6.7Z"/>
        <path class="st0" d="M1123.8,503.2l2.8,2.8,2.8-2.8h-1.6v-6.7c0-1-.6-2-1.5-2.4-.9-.5-1.9-.4-2.8.1l-4.1,2.7,1.2,2,4.2-2.8c.1,0,.3,0,.4,0,.1,0,.2.2.2.4v6.7h-1.6Z"/>
        <path class="st0" d="M1114.8,498l3.9.8-.8,3.9-.9-1.4-5.8,3.8c-.1,0-.2.2-.2.3,0,.1,0,.3.2.3l5.7,3.8-1.2,2-5.7-3.8c-.8-.5-1.2-1.4-1.2-2.3s.5-1.8,1.2-2.3l5.8-3.8-.9-1.4Z"/>
      </g>
    </g>
    <g>
      <g>
        <path class="st0" d="M1123.7,695.7h-1.3v-.9h0s-5.7,0-5.7,0h0v.9h-1.3v-4c0-2.9,1.3-4.2,4.1-4.2s4.4,1.4,4.4,4.3v3.9ZM1122.4,691.9c0-1.6-.9-2.5-3-2.5s-2.9.8-2.9,2.6v.9h5.8v-1Z"/>
        <path class="st0" d="M1123.7,686.7h-1.3v-.9h0s-5.7,0-5.7,0h0v1h-1.3v-3.8h1.3v.9h0s5.7,0,5.7,0h0v-1h1.3v3.8Z"/>
        <path class="st0" d="M1123.2,674.1c.4.8.7,2.4.7,3.7,0,3.2-1.4,4.3-4.2,4.3s-4.6-1.4-4.6-4.3.1-1.4.3-1.9c0-.2-.3-1.1-.4-1.3h3.1v1.3l-1.3.3c-.2.4-.3.9-.3,1.7,0,1.5.9,2.3,3,2.3s3.1-.7,3.1-2.5,0-.7-.1-1.1h-1.7v1.1h-1.3v-3.7h1.3v.9h1.4v-.8h1.2Z"/>
        <path class="st0" d="M1123.7,668.3h-1.3v-.8h0s-1.2.3-1.2.3v2.9l1.2.4h0v-.9h1.3v3.3h-1.3v-.8l-6.4-2.1h-.5l-.4-2.7,7.4-2.4v-.8h1.3v3.6ZM1116.7,669.1v.2l3.3,1v-2.2l-3.3,1Z"/>
        <path class="st0" d="M1123.7,655.4l-6.6,3.4h0c0,.1,5.2.1,5.2.1h0v-.9h1.3v3.4h-1.3v-.9h0s-5.7,0-5.7,0h0v.9h-1.3v-3.4l6.4-3.2v-.2h-5.1v1h-1.3v-3.4h1.3v.9h0s7.1,0,7.1,0v2.4Z"/>
        <path class="st0" d="M1112.2,645.1c1.3.2,2.1.6,2.1,1.5s-.9,1.6-.9,2.1.2.4.9.6v1c-1.4-.2-2.1-.5-2.1-1.5s1-1.6,1-2.1-.2-.4-.9-.6v-1ZM1123.7,647h-1.3v-.8h0s-1.2.3-1.2.3v2.9l1.2.4h0v-.9h1.3v3.3h-1.3v-.8l-6.4-2.1h-.5l-.4-2.7,7.4-2.4v-.8h1.3v3.6ZM1116.7,647.8v.2l3.3,1v-2.2l-3.3,1Z"/>
        <path class="st0" d="M1115.1,638.9c0-2.8,1.5-4,4.2-4s4.6,1.4,4.6,4.2-1.5,4-4.2,4-4.6-1.4-4.6-4.2ZM1116.4,639.1c0,1.3,1,2.1,3,2.1s3-.7,3-2.3-1-2.1-3-2.1-3.1.7-3.1,2.3Z"/>
        <path class="st0" d="M1123.7,626.4h-1.3v-.8h0s-1.2.3-1.2.3v2.9l1.2.4h0v-.9h1.3v3.3h-1.3v-.8l-6.4-2.1h-.5l-.4-2.7,7.4-2.4v-.8h1.3v3.6ZM1116.7,627.2v.2l3.3,1v-2.2l-3.3,1Z"/>
        <path class="st0" d="M1115.1,618.3c0-2.8,1.5-4,4.2-4s4.6,1.4,4.6,4.2-1.5,4-4.2,4-4.6-1.4-4.6-4.2ZM1116.4,618.5c0,1.3,1,2.1,3,2.1s3-.7,3-2.3-1-2.1-3-2.1-3.1.7-3.1,2.3Z"/>
        <path class="st0" d="M1123.7,604.5l-3.3,1.8v1.1h2v-.9h1.3v3.6h-1.3v-.9h0s-5.7,0-5.7,0h0v.9h-1.3v-4.1c0-2.4.8-3.3,2.4-3.3s2.2.6,2.5,1.7l2.2-1.3v-.9h1.3v2.2ZM1119.2,606.2c0-1.1-.5-1.6-1.4-1.6s-1.2.6-1.2,1.6v1.1h2.6v-1.2Z"/>
        <path class="st0" d="M1123.7,596.7h-1.3v-.8h0s-1.2.3-1.2.3v2.9l1.2.4h0v-.9h1.3v3.3h-1.3v-.8l-6.4-2.1h-.5l-.4-2.7,7.4-2.4v-.8h1.3v3.6ZM1116.7,597.6v.2l3.3,1v-2.2l-3.3,1Z"/>
        <path class="st0" d="M1123.4,586.4c.3.6.5,1.4.5,2.4,0,2.8-1.4,4-4.2,4s-4.6-1.4-4.6-4.2.1-1.5.3-1.9l-.4-1.3h3.1v1.3l-1.3.3c-.2.4-.3.9-.3,1.7,0,1.5.9,2.3,3,2.3s3.1-.7,3.1-2.5-.1-1.2-.4-1.6l-1.3-.4v-1.3l2.9.2-.3.9Z"/>
        <path class="st0" d="M1123.7,584.2h-1.3v-.9h0s-5.7,0-5.7,0h0v1h-1.3v-3.8h1.3v.9h0s5.7,0,5.7,0h0v-1h1.3v3.8Z"/>
        <path class="st0" d="M1117.9,574.2l-1.2.3c-.2.4-.3.9-.3,1.5,0,1.2.3,1.7,1,1.7s1-.4,1.3-2c.4-2.3,1-3,2.5-3s2.7,1.2,2.7,3.6-.2,2.3-.5,3.1l-2.5.2v-1.4l1.4-.4c.1-.5.2-1,.2-1.5,0-1.2-.4-1.7-1.1-1.7s-1,.4-1.3,2c-.4,2.2-1,3-2.5,3s-2.5-1.4-2.5-3.4,0-1.3.3-2.2l-.4-1.1h3v1.3Z"/>
        <path class="st0" d="M1123.7,563.9h-1.3v-.8h0s-5.7,0-5.7,0h0c0,0,6.7,2.1,6.7,2.1v2.1l-6.7,2h0c0,0,5.7.2,5.7.2h0v-.9h1.3v3.3h-1.3v-.9h0s-5.7-.1-5.7-.1h0v.9h-1.3v-4l6.1-1.7h0c0-.1-6.1-1.8-6.1-1.8v-3.9h1.3v.9h0s5.7,0,5.7,0h0v-.9h1.3v3.5Z"/>
        <path class="st0" d="M1115.1,555.4c0-2.8,1.5-4,4.2-4s4.6,1.4,4.6,4.2-1.5,4-4.2,4-4.6-1.4-4.6-4.2ZM1116.4,555.6c0,1.3,1,2.1,3,2.1s3-.7,3-2.3-1-2.1-3-2.1-3.1.7-3.1,2.3Z"/>
        <path class="st0" d="M1123.9,549.3c0,.8-.4,1.2-1.2,1.2s-1.2-.4-1.2-1.2.4-1.2,1.2-1.2,1.2.4,1.2,1.2Z"/>
      </g>
      <path class="st0" d="M1112.4,711.4c-.1,0-.3,0-.3.2-.3.4-.5.8-.6,1,0,0,0,.2,0,.2,0,.2,0,.4.2.5.6.4,1.2.8,1.8,1.2,0,0,.2.1.4.2,0,0,0,0,0,0l1.1-1.8s0,0,0,0c-.7-.4-1.4-.9-2.1-1.3-.1,0-.2-.1-.3-.1ZM1107.8,712.2c0,6.2,5,11.2,11.2,11.2s11.2-5,11.2-11.2-5-11.2-11.2-11.2-11.2,5-11.2,11.2ZM1124.3,710.2l-.2.9s0,0,0,0l3.3.4s0,0,0,0h0s0,0,0,0c-.1,0-.2,0-.3,0-1.1,0-2.1,0-3.1,0,0,0,0,0,0,0v1.3c0,0,0,0,0,0l-.7-1.6s0,0,0,0l.9-1s0,0,0,0ZM1128,709.9c-1.4,0-2.4,0-2.6,0-.2,0-.4,0-.6,0,0,0,0,0,0,0-.4-.6-.8-1.1-1.4-1.4-.3-.2-.5-.3-.8-.4-.7-.3-1.4-.5-2.2-.5-.2,0-.4,0-.6,0,0,0,0,0,0,0,.3.3.5.7.8,1,0,0,.1.1.2.3.1.1.2.2.2.3.1.3.1.6,0,.8,0,0-.1.2-.4.5-.1.1-.2.2-.3.3,0,0-.1,0-.2,0,0,0,0,0,0,0,0,0,0,.2,0,.3,0,0,0,.2-.1.4-.1.3-.3.7-.4,1-.2.4-.3.7-.4.8,0,0,0,0,0,0,0,0,0,0,0,0s0,0,0,0c.1,0,.2-.1.2-.1,0,0,.2-.2.7-.4.2-.1.4-.2.5-.3.6-.3,1.2-.6,1.8-.8.3-.1.6-.2.8-.2,0,0,0,0,0,0-.2.2-.3.3-.6.5,0,0-.2.1-.4.2-.5.2-.9.4-1,.5-.2.1-.5.3-.8.4-.4.2-.9.5-1.3.8-.2.2-.4.3-.5.5-.1.2-.2.4-.3.7-.1.3-.2.7-.3,1.1,0,0,0,0,0,0,0-.2,0-.4-.1-.6,0,0,0,0,0-.1,0,0,0,0,0,0,0,0,0,0-.3-.2-.1,0-.2,0-.4,0-.2,0-.4,0-.7,0,0,0,0,0,0,0,.1,0,.2-.2.4-.3.2-.2.3-.3.4-.3.1-.1.2-.3.2-.5,0-.2,0-.3,0-.4,0-.4-.1-.8-.2-1.2-.1-.4-.3-.5-.7-.6-.2,0-.3,0-.4.3-.4.6-1,1.5-1.7,2.8-.1.2-.2.3-.2.3-.2.2-.1.5,0,.7,0,0,.1.1.2.2,1,.7,2.1,1.5,3.2,2.3.3.2.5.2.8,0,1.2-.8,2.8-1.8,4.9-3.1.2-.1.3-.2.3-.2.2-.1.5,0,.8,0,1,.2,1.8.4,2.3.5.2,0,.6.1,1.1.2-1.3,3.4-4.7,5.9-8.6,5.9-5.1,0-9.2-4.1-9.2-9.2s4.1-9.2,9.2-9.2c4.3,0,7.9,2.9,8.9,6.9ZM1115.8,711.3c.1,0,.3-.2.4-.2,0,0,.1,0,.3,0,0,0,0,0,0,0-.6-.5-1.3-1-2.2-1.7,0,0,0,0,0,0-.1-.1-.3-.2-.5,0,0,0-.1.1-.2.2-.3.5-.6.8-.8,1.1,0,0,0,.1-.1.2,0,.2,0,.3.1.3.9.6,1.6,1,2.1,1.3,0,0,0,0,0,0,.2-.3.4-.6.5-.8.1-.2.2-.3.3-.4ZM1117.5,711.9c0,.3.2.7.3,1.3,0,.1,0,.3.1.4,0,0,0,0,0,.1,0,0,0,0,.1,0,0,0,.1-.2.2-.2,0,0,.2-.4.4-.9,0,0,0,0,0,0-.1,0-.2,0-.3,0,0,0-.1,0-.2-.2-.2-.1-.4-.3-.6-.5,0,0,0,0,0,0ZM1117.9,706.7c-.3.3-.6.5-.7.6-.2.1-.2.3-.2.4,0,0,.1.2.2.3.2.1.3.3.4.3.6.5,1.2,1.1,1.7,1.6.1.1.2.2.3.2.1,0,.3,0,.4-.1,0,0,.2-.2.4-.4.2-.2.3-.3.2-.5,0,0,0-.2-.2-.3-.7-.8-1.3-1.5-1.8-2.2,0,0,0,0,0,0,0,0-.1-.1-.2-.1-.1,0-.2,0-.3,0,0,0-.1,0-.2.2ZM1116.3,707.7c-.2,0-.3,0-.4.1-.5.6-.8,1-.9,1,0,0-.1.1-.1.2,0,0,0,.2,0,.2,0,0,0,.1.2.2.9.7,1.8,1.4,2.7,2.2.3.2.4.4.5.4,0,0,.2.1.2.1.1,0,.2,0,.3-.1,0,0,.1-.2.2-.4.2-.4.3-.6.4-.7,0-.1,0-.3,0-.4,0,0,0,0-.1-.2,0,0,0,0-.2-.1-.8-.8-1.7-1.6-2.7-2.5,0,0-.1,0-.2,0Z"/>
    </g>
  </g>
</svg>